{"glyphs":{":":{"x_min":0,"x_max":603,"ha":603,"o":"m 217 0 l 217 168 l 385 168 l 385 0 z m 217 361 l 217 530 l 385 530 l 385 361 z"},"$":{"x_min":0,"x_max":603,"ha":603,"o":"m 268 -78 l 268 2 q 187 2 70 38 l 70 145 q 179 95 268 90 l 268 322 l 243 339 q 165 392 139 421 q 114 450 103 479 q 91 509 91 543 q 91 607 135 659 q 179 711 268 722 l 268 801 l 347 801 l 347 722 q 423 718 502 691 l 502 593 q 422 631 347 638 l 347 419 l 369 404 q 470 339 498 298 q 526 256 526 201 q 526 131 481 74 q 437 16 347 1 l 347 -78 z m 332 96 q 366 107 384 131 q 401 154 401 182 q 401 205 390 226 q 378 248 331 281 z m 282 461 l 282 633 q 216 611 216 554 q 216 528 229 507 q 243 486 282 461 z"},"?":{"x_min":0,"x_max":603,"ha":603,"o":"m 171 0 l 171 121 l 316 121 l 316 0 z m 171 217 l 171 230 q 171 286 203 326 q 235 367 299 417 l 341 449 q 373 474 393 505 q 412 535 412 564 q 412 602 378 623 q 345 645 287 645 q 232 645 171 625 l 171 530 l 75 530 l 75 706 q 190 741 314 741 q 448 741 509 692 q 569 643 569 578 q 569 535 544 492 q 519 448 444 399 l 398 368 q 354 339 341 323 q 327 306 322 287 q 316 269 316 246 l 316 217 z"},"<":{"x_min":0,"x_max":603,"ha":603,"o":"m 560 518 l 560 414 l 247 259 l 560 101 l 560 0 l 42 259 z"},"'":{"x_min":0,"x_max":603,"ha":603,"o":"m 253 458 l 217 771 l 385 771 l 349 458 z"},"=":{"x_min":0,"x_max":603,"ha":603,"o":"m 42 114 l 42 205 l 560 205 l 560 114 z m 42 313 l 42 404 l 560 404 l 560 313 z"},"a":{"x_min":0,"x_max":603,"ha":603,"o":"m 362 56 q 337 22 302 5 q 266 -12 220 -12 q 146 -12 94 33 q 42 79 42 154 q 42 208 68 248 q 95 289 149 313 q 204 337 320 337 l 376 337 l 376 363 q 376 405 348 425 q 319 446 262 446 q 184 446 87 400 l 87 506 q 146 527 198 535 q 250 542 288 542 q 356 542 407 526 q 457 510 489 471 q 521 432 521 332 l 521 152 q 521 123 525 114 q 528 106 536 102 q 543 97 554 97 q 561 97 571 100 l 571 3 q 526 -12 491 -12 q 466 -12 445 -5 q 424 1 408 13 q 392 25 376 56 z m 376 154 l 376 241 l 324 241 q 237 241 211 216 q 185 190 185 161 q 185 133 207 114 q 229 96 258 96 q 280 96 312 110 q 344 124 376 154 z"},"L":{"x_min":0,"x_max":603,"ha":603,"o":"m 105 0 l 105 723 l 250 723 l 250 96 l 587 96 l 587 0 z"},"3":{"x_min":0,"x_max":603,"ha":603,"o":"m 99 8 l 99 113 q 171 78 232 78 q 285 78 323 112 q 361 146 361 197 q 361 234 341 266 q 320 297 276 313 q 233 329 183 329 l 165 329 l 165 426 l 176 426 q 264 426 307 462 q 351 499 351 553 q 351 594 326 619 q 302 645 246 645 q 187 645 107 610 l 107 713 q 167 734 202 738 q 237 741 272 741 q 348 741 395 718 q 441 694 468 655 q 495 616 495 564 q 495 509 462 463 q 429 416 337 388 q 440 359 479 306 q 519 252 519 193 q 519 136 485 88 q 452 40 389 11 q 325 -18 248 -18 q 226 -18 198 -15 q 170 -12 150 -8 q 130 -4 99 8 z"},";":{"x_min":0,"x_max":603,"ha":603,"o":"m 217 -145 l 217 -78 q 246 -76 259 -69 q 272 -63 278 -49 q 283 -34 283 -23 l 283 0 l 217 0 l 217 168 l 385 168 l 385 32 q 385 -41 365 -78 q 346 -114 313 -129 q 280 -145 217 -145 z m 217 361 l 217 530 l 385 530 l 385 361 z"},"J":{"x_min":0,"x_max":603,"ha":603,"o":"m 76 -2 l 76 109 q 169 80 238 80 q 273 80 305 96 q 337 111 353 141 q 370 170 370 253 l 370 626 l 129 626 l 129 723 l 515 723 l 515 275 q 515 145 484 89 q 454 34 396 8 q 337 -18 245 -18 q 160 -18 76 -2 z"},"V":{"x_min":0,"x_max":603,"ha":603,"o":"m 219 0 l 6 723 l 157 723 l 317 180 l 493 723 l 596 723 l 363 0 z"},"\"":{"x_min":0,"x_max":603,"ha":603,"o":"m 120 482 l 96 771 l 241 771 l 217 482 z m 385 482 l 361 771 l 506 771 l 482 482 z"},"7":{"x_min":0,"x_max":603,"ha":603,"o":"m 140 0 q 144 90 180 179 q 216 269 269 356 l 419 603 l 110 603 l 110 723 l 538 723 l 538 603 l 517 572 q 369 356 327 223 q 285 89 285 0 z"},"S":{"x_min":0,"x_max":603,"ha":603,"o":"m 51 6 l 51 127 q 165 81 261 81 q 329 81 371 110 q 413 140 413 184 q 413 209 399 230 q 385 250 328 282 l 193 355 q 127 391 101 417 q 75 444 61 477 q 47 509 47 545 q 47 626 111 684 q 175 741 315 741 q 421 741 517 717 l 517 603 q 414 645 319 645 q 253 645 218 623 q 183 601 183 567 q 183 549 192 531 q 201 513 249 488 l 398 408 q 494 357 529 309 q 564 261 564 197 q 564 138 533 88 q 501 38 438 10 q 375 -18 266 -18 q 168 -18 51 6 z"},"}":{"x_min":0,"x_max":603,"ha":603,"o":"m 295 313 q 239 333 211 370 q 184 407 184 450 q 184 474 193 521 l 203 575 l 208 603 q 210 616 210 626 q 210 675 128 675 l 72 675 l 72 771 l 138 771 q 260 771 304 733 q 349 695 349 642 q 349 611 339 569 l 322 497 q 315 468 315 442 q 315 404 341 383 q 367 361 437 361 l 494 361 l 494 265 l 437 265 q 368 265 341 244 q 315 222 315 184 q 315 159 322 129 l 339 57 q 349 15 349 -16 q 349 -69 304 -107 q 260 -145 138 -145 l 72 -145 l 72 -48 l 128 -48 q 169 -48 184 -42 q 198 -36 204 -25 q 210 -13 210 0 q 210 12 208 24 l 203 51 l 193 105 q 184 153 184 177 q 184 219 211 256 q 239 294 295 313 z"},"Z":{"x_min":0,"x_max":603,"ha":603,"o":"m 42 0 l 42 98 l 376 626 l 62 626 l 62 723 l 548 723 l 548 626 l 215 96 l 548 96 l 548 0 z"},"x":{"x_min":0,"x_max":603,"ha":603,"o":"m 33 0 l 223 271 l 39 530 l 214 530 l 326 372 l 441 530 l 562 530 l 384 287 l 583 0 l 410 0 l 282 186 l 150 0 z"},")":{"x_min":0,"x_max":603,"ha":603,"o":"m 60 771 q 190 754 275 692 q 360 630 407 530 q 455 430 455 312 q 455 194 406 93 q 358 -8 271 -70 q 183 -133 60 -145 l 60 -48 q 137 -37 194 12 q 250 61 280 133 q 310 206 310 312 q 310 461 246 556 q 182 651 60 675 z"},"&":{"x_min":0,"x_max":603,"ha":603,"o":"m 434 0 q 423 13 411 28 l 400 42 q 371 15 327 -1 q 284 -18 234 -18 q 161 -18 115 11 q 68 41 41 92 q 14 142 14 202 q 14 342 167 422 l 160 435 q 121 504 109 538 q 98 571 98 593 q 98 631 121 667 q 145 703 186 722 q 227 741 281 741 q 333 741 374 723 q 415 706 437 670 q 459 634 459 596 q 459 555 431 504 q 404 453 327 409 l 337 390 q 405 266 448 206 q 470 248 474 281 q 479 314 479 398 l 479 431 l 601 431 q 601 342 584 275 q 568 208 503 128 l 513 114 q 569 34 598 0 z m 282 481 q 338 534 338 591 q 338 620 322 634 q 306 647 289 647 q 269 647 253 632 q 238 617 238 592 q 238 560 272 499 z m 350 118 q 327 149 296 199 l 258 261 q 235 298 212 344 q 161 298 161 231 q 161 163 197 128 q 234 94 276 94 q 312 94 350 118 z"},"_":{"x_min":0,"x_max":603,"ha":603,"o":"m 0 -108 l 0 0 l 603 0 l 603 -108 z"},"v":{"x_min":0,"x_max":603,"ha":603,"o":"m 233 0 l 25 530 l 180 530 l 331 145 l 484 530 l 589 530 l 377 0 z"},"O":{"x_min":0,"x_max":603,"ha":603,"o":"m 301 -18 q 157 -18 85 85 q 12 188 12 361 q 12 535 84 638 q 157 741 301 741 q 446 741 518 638 q 590 535 590 361 q 590 188 518 85 q 445 -18 301 -18 z m 301 78 q 340 78 370 105 q 399 132 417 189 q 434 246 434 361 q 434 477 418 532 q 401 588 371 616 q 341 645 301 645 q 262 645 232 616 q 202 588 186 532 q 169 476 169 361 q 169 245 186 189 q 203 132 233 105 q 263 78 301 78 z"},"(":{"x_min":0,"x_max":603,"ha":603,"o":"m 542 -145 q 411 -128 326 -66 q 242 -3 195 97 q 147 197 147 314 q 147 433 196 534 q 244 635 332 697 q 419 759 542 771 l 542 675 q 465 663 408 615 q 352 566 322 493 q 292 420 292 314 q 292 165 356 70 q 421 -24 542 -48 z"},"C":{"x_min":0,"x_max":603,"ha":603,"o":"m 579 21 q 465 -19 363 -19 q 261 -19 182 29 q 103 77 62 165 q 20 252 20 362 q 20 467 59 553 q 97 639 172 690 q 248 741 390 741 q 490 741 579 719 l 579 602 q 466 645 392 645 q 332 645 281 612 q 229 580 203 509 q 176 438 176 358 q 176 237 238 161 q 300 84 395 84 q 477 84 579 132 z"},"W":{"x_min":0,"x_max":603,"ha":603,"o":"m 98 0 l 2 723 l 130 723 l 187 265 l 188 265 l 269 530 l 364 530 l 443 251 l 444 251 l 503 723 l 600 723 l 503 0 l 395 0 l 302 347 l 300 347 l 196 0 z"},"A":{"x_min":0,"x_max":603,"ha":603,"o":"m 10 0 l 245 723 l 389 723 l 592 0 l 442 0 l 389 184 l 171 184 l 111 0 z m 200 274 l 365 274 l 289 546 z"},"f":{"x_min":0,"x_max":603,"ha":603,"o":"m 201 0 l 201 422 l 98 422 l 98 518 l 201 518 l 201 594 q 201 680 253 731 q 305 783 418 783 q 511 783 598 763 l 598 659 q 505 687 449 687 q 417 687 394 678 q 371 670 358 653 q 345 636 345 592 l 345 518 l 550 518 l 550 422 l 345 422 l 345 0 z"},"Q":{"x_min":0,"x_max":603,"ha":603,"o":"m 437 12 q 482 -11 542 -22 q 602 -33 639 -33 l 537 -133 q 458 -111 395 -69 l 348 -37 q 340 -33 317 -18 l 301 -18 q 158 -18 85 84 q 12 187 12 361 q 12 489 47 571 q 82 653 144 697 q 206 741 301 741 q 394 741 455 700 q 516 659 553 575 q 590 492 590 361 q 590 289 577 223 q 563 157 532 106 q 500 56 437 12 z m 301 78 q 340 78 370 105 q 399 132 417 189 q 434 246 434 361 q 434 477 417 532 q 401 588 371 616 q 341 645 301 645 q 262 645 232 617 q 202 589 186 533 q 169 477 169 362 q 169 246 186 189 q 203 133 233 105 q 263 78 301 78 z"},"w":{"x_min":0,"x_max":603,"ha":603,"o":"m 94 0 l 5 530 l 133 530 l 184 205 l 185 205 l 266 482 l 367 482 l 448 203 l 450 203 l 500 530 l 598 530 l 509 0 l 395 0 l 303 322 l 301 322 l 208 0 z"},"-":{"x_min":0,"x_max":603,"ha":603,"o":"m 103 259 l 103 355 l 500 355 l 500 259 z"},"E":{"x_min":0,"x_max":603,"ha":603,"o":"m 82 0 l 82 723 l 534 723 l 534 626 l 227 626 l 227 422 l 486 422 l 486 332 l 227 332 l 227 96 l 560 96 l 560 0 z"},"s":{"x_min":0,"x_max":603,"ha":603,"o":"m 77 18 l 77 127 q 199 84 271 84 q 318 84 348 99 q 377 113 377 144 q 377 162 364 174 q 351 186 326 195 l 213 240 q 80 293 80 380 q 80 425 110 463 q 140 501 190 522 q 241 542 337 542 q 407 542 500 522 l 500 411 q 402 446 333 446 q 288 446 260 434 q 231 422 231 400 q 231 386 241 376 q 251 367 303 346 l 428 294 q 494 268 517 233 q 539 198 539 157 q 539 111 511 72 q 483 33 427 10 q 371 -12 300 -12 q 270 -12 224 -9 q 179 -6 77 18 z"},">":{"x_min":0,"x_max":603,"ha":603,"o":"m 42 0 l 42 104 l 355 259 l 42 417 l 42 518 l 560 259 z"},"l":{"x_min":0,"x_max":603,"ha":603,"o":"m 241 0 l 241 675 l 48 675 l 48 771 l 386 771 l 386 0 z"},"8":{"x_min":0,"x_max":603,"ha":603,"o":"m 210 390 q 164 423 131 463 q 98 503 98 556 q 98 630 157 685 q 217 741 313 741 q 409 741 460 690 q 510 639 510 573 q 510 472 396 402 q 481 337 515 287 q 548 238 548 186 q 548 130 516 81 q 483 33 429 7 q 375 -18 299 -18 q 224 -18 171 6 q 119 30 89 80 q 60 129 60 182 q 60 246 103 301 q 147 356 210 390 z m 330 459 q 375 514 375 564 q 375 599 355 622 q 335 645 303 645 q 271 645 251 625 q 232 606 232 581 q 232 552 257 524 q 281 496 330 459 z m 275 331 q 235 293 223 260 q 211 228 211 197 q 211 151 241 115 q 271 78 315 78 q 354 78 378 102 q 402 125 402 164 q 402 187 392 210 q 381 233 350 263 q 319 294 304 307 z"},"\\":{"x_min":0,"x_max":603,"ha":603,"o":"m 474 -145 l 7 771 l 128 771 l 594 -145 z"},"e":{"x_min":0,"x_max":603,"ha":603,"o":"m 560 22 q 436 -12 342 -12 q 253 -12 185 21 q 118 54 81 118 q 44 183 44 264 q 44 341 79 408 q 113 474 178 508 q 244 542 322 542 q 431 542 496 472 q 560 402 560 278 l 560 225 l 202 225 q 208 161 257 128 q 306 96 376 96 q 458 96 560 134 z m 197 321 l 420 321 q 420 446 315 446 q 265 446 234 413 q 203 380 197 321 z"},"b":{"x_min":0,"x_max":603,"ha":603,"o":"m 60 0 l 60 771 l 205 771 l 205 530 l 199 430 l 205 430 q 234 479 260 500 q 285 521 311 531 q 337 542 370 542 q 461 542 516 469 q 571 397 571 277 q 571 146 510 67 q 450 -12 347 -12 q 304 -12 269 4 q 233 20 205 51 l 199 51 l 181 0 z m 205 150 q 224 130 252 115 q 281 101 309 101 q 340 101 365 119 q 390 137 402 178 q 415 220 415 274 q 415 345 389 376 q 364 408 322 408 q 292 408 263 389 q 235 370 205 323 z"},"%":{"x_min":0,"x_max":603,"ha":603,"o":"m 65 -18 l 456 741 l 537 741 l 147 -18 z m 145 361 q 70 361 35 414 q 0 467 0 542 q 0 618 35 670 q 71 723 145 723 q 218 723 254 670 q 289 618 289 542 q 289 467 254 414 q 219 361 145 361 z m 145 452 q 166 452 173 478 q 180 504 180 542 q 180 582 172 607 q 165 632 145 632 q 124 632 117 606 q 110 581 110 542 q 110 504 117 478 q 124 452 145 452 z m 458 0 q 383 0 348 53 q 313 105 313 181 q 313 257 349 309 q 384 361 458 361 q 532 361 567 309 q 603 257 603 181 q 603 105 567 53 q 532 0 458 0 z m 458 90 q 479 90 486 116 q 493 143 493 181 q 493 220 486 245 q 479 271 458 271 q 437 271 430 245 q 423 219 423 181 q 423 143 430 116 q 437 90 458 90 z"},"m":{"x_min":0,"x_max":603,"ha":603,"o":"m 362 0 l 241 0 l 241 353 q 241 391 236 400 q 230 410 220 410 q 189 410 163 343 l 163 0 l 42 0 l 42 530 l 163 530 l 157 428 l 163 428 q 180 476 208 509 q 237 542 273 542 q 307 542 332 517 q 358 492 362 428 l 368 428 q 382 477 408 510 q 434 542 470 542 q 496 542 518 525 q 541 509 551 477 q 561 445 561 354 l 561 0 l 440 0 l 440 353 q 440 391 434 400 q 429 410 418 410 q 388 410 362 343 z"},"#":{"x_min":0,"x_max":603,"ha":603,"o":"m 78 0 l 131 211 l 36 211 l 52 295 l 153 295 l 187 428 l 79 428 l 95 512 l 208 512 l 262 723 l 350 723 l 296 512 l 380 512 l 434 723 l 522 723 l 469 512 l 566 512 l 550 428 l 447 428 l 414 295 l 523 295 l 506 211 l 393 211 l 338 0 l 251 0 l 305 211 l 219 211 l 165 0 z m 241 295 l 326 295 l 359 428 l 273 428 z"},",":{"x_min":0,"x_max":603,"ha":603,"o":"m 217 -145 l 217 -78 q 261 -75 272 -60 q 283 -45 283 -23 l 283 0 l 217 0 l 217 168 l 385 168 l 385 32 q 385 -41 365 -78 q 346 -114 313 -129 q 280 -145 217 -145 z"},"n":{"x_min":0,"x_max":603,"ha":603,"o":"m 69 0 l 69 530 l 214 530 l 208 428 l 214 428 q 233 478 275 510 q 316 542 382 542 q 453 542 496 498 q 539 454 539 362 l 539 0 l 395 0 l 395 330 q 395 376 379 393 q 363 410 334 410 q 300 410 268 386 q 235 362 214 330 l 214 0 z"},"h":{"x_min":0,"x_max":603,"ha":603,"o":"m 69 0 l 69 771 l 214 771 l 214 530 l 208 428 l 214 428 q 233 478 275 510 q 316 542 382 542 q 453 542 496 498 q 539 454 539 362 l 539 0 l 395 0 l 395 330 q 395 376 379 393 q 363 410 334 410 q 300 410 268 386 q 235 362 214 330 l 214 0 z"},"z":{"x_min":0,"x_max":603,"ha":603,"o":"m 58 0 l 58 108 l 361 434 l 70 434 l 70 530 l 552 530 l 552 434 l 249 108 l 556 108 l 556 0 z"},"B":{"x_min":0,"x_max":603,"ha":603,"o":"m 67 0 l 67 723 l 322 723 q 413 723 455 703 q 497 683 518 645 q 539 606 539 558 q 539 505 510 464 q 482 422 411 389 q 500 351 535 299 q 570 247 570 184 q 570 106 515 53 q 460 0 347 0 z m 211 428 l 247 428 q 318 428 354 461 q 389 495 389 546 q 389 587 365 607 q 342 626 267 626 l 211 626 z m 211 96 l 290 96 q 359 96 386 126 q 414 157 414 202 q 414 260 371 296 q 327 332 248 332 l 211 332 z"},"K":{"x_min":0,"x_max":603,"ha":603,"o":"m 69 0 l 69 723 l 214 723 l 214 427 l 245 427 l 472 723 l 593 723 l 347 403 l 602 0 l 431 0 l 245 294 l 214 294 l 214 0 z"},"R":{"x_min":0,"x_max":603,"ha":603,"o":"m 67 0 l 67 723 l 341 723 q 444 723 494 671 q 543 619 543 541 q 543 499 528 459 q 513 420 487 389 q 461 358 411 331 l 596 0 l 430 0 l 265 295 l 211 295 l 211 0 z m 211 392 l 238 392 q 284 392 319 408 q 354 425 373 459 q 392 494 392 533 q 392 560 381 582 q 371 605 351 616 q 331 626 258 626 l 211 626 z"},"T":{"x_min":0,"x_max":603,"ha":603,"o":"m 229 0 l 229 626 l 12 626 l 12 723 l 590 723 l 590 626 l 374 626 l 374 0 z"},"P":{"x_min":0,"x_max":603,"ha":603,"o":"m 72 0 l 72 723 l 352 723 q 471 723 523 673 q 576 623 576 529 q 576 456 545 402 q 515 349 452 318 q 389 287 272 287 l 217 287 l 217 0 z m 217 383 l 252 383 q 301 383 342 398 q 382 413 401 450 q 420 487 420 528 q 420 556 409 579 q 398 602 373 614 q 348 626 271 626 l 217 626 z"},"|":{"x_min":0,"x_max":603,"ha":603,"o":"m 247 -145 l 247 771 l 355 771 l 355 -145 z"},"t":{"x_min":0,"x_max":603,"ha":603,"o":"m 538 13 q 451 -12 385 -12 q 329 -12 281 8 q 232 27 209 62 q 186 96 186 165 l 186 422 l 71 422 l 71 518 l 186 518 l 186 650 l 330 650 l 330 518 l 526 518 l 526 422 l 330 422 l 330 197 q 330 146 343 129 q 355 111 377 104 q 399 96 423 96 q 480 96 538 119 z"},"M":{"x_min":0,"x_max":603,"ha":603,"o":"m 41 0 l 41 723 l 208 723 l 305 398 l 306 398 l 407 723 l 562 723 l 562 0 l 453 0 l 453 555 l 452 555 l 349 193 l 239 193 l 139 555 l 137 555 l 137 0 z"},"g":{"x_min":0,"x_max":603,"ha":603,"o":"m 95 -163 l 108 -60 q 220 -104 293 -104 q 350 -104 382 -70 q 414 -36 414 26 l 416 126 l 410 126 q 384 63 342 31 q 300 0 243 0 q 150 0 96 75 q 42 150 42 263 q 42 387 103 465 q 164 542 269 542 q 309 542 344 527 q 380 512 410 482 l 421 482 l 434 530 l 554 530 l 554 66 q 554 -40 522 -94 q 489 -149 435 -177 q 380 -205 312 -205 q 220 -205 95 -163 z m 410 225 l 410 385 q 368 419 348 426 q 327 434 304 434 q 245 434 222 385 q 199 335 199 275 q 199 209 223 174 q 248 139 292 139 q 326 139 355 160 q 385 182 410 225 z"},"j":{"x_min":0,"x_max":603,"ha":603,"o":"m 60 -183 l 60 -69 q 148 -108 213 -108 q 240 -108 261 -98 q 282 -87 292 -65 q 301 -42 301 32 l 301 434 l 108 434 l 108 530 l 446 530 l 446 40 q 446 -79 417 -122 q 387 -165 337 -185 q 287 -205 226 -205 q 161 -205 60 -183 z m 301 626 l 301 771 l 446 771 l 446 626 z"},"i":{"x_min":0,"x_max":603,"ha":603,"o":"m 289 0 l 289 434 l 96 434 l 96 530 l 434 530 l 434 0 z m 289 626 l 289 771 l 434 771 l 434 626 z"},"y":{"x_min":0,"x_max":603,"ha":603,"o":"m 50 -193 l 50 -96 l 111 -96 q 163 -96 191 -79 q 219 -61 237 -19 l 257 27 l 20 530 l 180 530 l 336 200 l 486 530 l 593 530 l 330 -52 q 299 -120 253 -156 q 208 -193 123 -193 z"},"@":{"x_min":0,"x_max":603,"ha":603,"o":"m 460 20 q 375 -18 307 -18 q 180 -18 103 81 q 25 179 25 338 q 25 454 66 548 q 107 641 180 691 q 252 741 348 741 q 440 741 493 688 q 545 635 545 520 l 545 217 l 593 217 l 593 145 l 460 145 l 460 294 q 434 232 410 202 q 385 172 357 154 q 329 137 300 137 q 252 137 219 182 q 187 228 187 318 q 187 429 239 510 q 291 591 380 591 q 413 591 455 578 q 447 617 432 633 q 417 649 393 657 q 368 666 336 666 q 224 666 166 562 q 109 458 109 333 q 109 252 134 191 q 158 129 206 95 q 254 61 310 61 q 378 61 460 106 z m 460 452 l 460 503 q 424 522 396 522 q 333 522 307 459 q 282 396 282 327 q 282 285 292 255 q 303 225 323 226 q 354 228 391 285 q 429 343 460 452 z"},".":{"x_min":0,"x_max":603,"ha":603,"o":"m 217 0 l 217 168 l 385 168 l 385 0 z"},"p":{"x_min":0,"x_max":603,"ha":603,"o":"m 57 -193 l 57 530 l 202 530 l 196 430 l 202 430 q 231 479 257 500 q 282 521 308 531 q 334 542 367 542 q 458 542 513 469 q 568 397 568 277 q 568 146 508 67 q 447 -12 344 -12 q 301 -12 266 4 q 230 20 202 51 l 196 51 l 202 0 l 202 -193 z m 202 150 q 221 130 250 115 q 278 101 306 101 q 337 101 362 119 q 387 137 399 178 q 412 220 412 274 q 412 345 386 376 q 361 408 319 408 q 289 408 260 389 q 232 370 202 323 z"},"X":{"x_min":0,"x_max":603,"ha":603,"o":"m 18 0 l 226 358 l 23 723 l 188 723 l 321 484 l 457 723 l 567 723 l 375 385 l 586 0 l 422 0 l 281 258 l 129 0 z"},"*":{"x_min":0,"x_max":603,"ha":603,"o":"m 240 286 l 125 358 l 249 474 q 262 452 288 445 z m 73 504 l 110 634 l 256 546 q 241 527 241 507 q 241 503 241 499 z m 278 562 l 234 723 l 368 723 l 326 562 q 312 566 302 566 q 292 566 278 562 z m 363 499 q 364 503 364 505 q 364 526 349 545 l 494 630 l 529 504 z m 370 286 l 312 444 q 328 448 335 453 q 343 459 352 470 l 481 362 z"},"Y":{"x_min":0,"x_max":603,"ha":603,"o":"m 226 0 l 226 306 l 0 723 l 166 723 l 327 424 l 491 723 l 602 723 l 370 306 l 370 0 z"},"c":{"x_min":0,"x_max":603,"ha":603,"o":"m 542 11 q 511 3 479 -2 q 447 -7 415 -10 q 384 -12 357 -12 q 215 -12 132 61 q 48 134 48 264 q 48 386 124 464 q 200 542 352 542 q 455 542 542 519 l 542 412 q 450 446 368 446 q 301 446 253 405 q 205 364 205 281 q 205 226 227 182 q 250 137 298 114 q 347 90 404 90 q 469 90 542 117 z"},"!":{"x_min":0,"x_max":603,"ha":603,"o":"m 229 0 l 229 121 l 374 121 l 374 0 z m 253 217 l 229 578 l 229 723 l 374 723 l 374 578 l 350 217 z"},"/":{"x_min":0,"x_max":603,"ha":603,"o":"m 4 -145 l 476 771 l 599 771 l 126 -145 z"},"[":{"x_min":0,"x_max":603,"ha":603,"o":"m 181 -145 l 181 771 l 554 771 l 554 675 l 313 675 l 313 -48 l 554 -48 l 554 -145 z"},"6":{"x_min":0,"x_max":603,"ha":603,"o":"m 525 719 l 525 611 q 456 645 397 645 q 311 645 261 575 q 211 505 211 388 q 243 422 266 437 q 290 452 315 460 q 341 468 367 468 q 419 468 462 439 q 504 411 528 361 q 552 311 552 244 q 552 170 524 109 q 496 48 446 15 q 397 -18 325 -18 q 231 -18 176 22 q 120 62 86 145 q 51 228 51 337 q 51 453 90 544 q 128 636 202 689 q 276 741 377 741 q 418 741 486 727 q 500 725 525 719 z m 316 78 q 356 78 380 114 q 405 149 405 218 q 405 284 382 318 q 358 352 319 352 q 281 352 251 320 q 221 288 221 223 q 221 155 248 117 q 275 78 316 78 z"},"r":{"x_min":0,"x_max":603,"ha":603,"o":"m 108 0 l 108 530 l 253 530 l 247 428 l 253 428 q 281 474 309 496 q 337 519 371 530 q 404 542 448 542 q 490 542 548 530 l 548 313 l 452 313 l 452 414 q 434 415 426 415 q 393 415 363 403 q 333 392 306 371 q 279 350 253 308 l 253 0 z"},"2":{"x_min":0,"x_max":603,"ha":603,"o":"m 80 0 l 80 121 q 115 173 161 223 l 183 247 l 249 323 q 298 378 330 432 q 361 486 361 536 q 361 586 329 612 q 298 639 251 639 q 181 639 103 598 l 103 707 q 188 741 289 741 q 399 741 458 680 q 517 620 517 543 q 517 497 495 454 q 474 411 407 346 l 350 290 q 263 206 221 121 l 514 121 l 514 0 z"},"{":{"x_min":0,"x_max":603,"ha":603,"o":"m 307 313 q 363 294 391 257 q 418 219 418 177 q 418 153 409 105 l 399 51 l 394 24 q 392 11 392 0 q 392 -48 475 -48 l 530 -48 l 530 -145 l 464 -145 q 342 -145 298 -106 q 254 -68 254 -16 q 254 15 264 57 l 281 129 q 288 159 288 184 q 288 222 261 244 q 235 265 166 265 l 108 265 l 108 361 l 166 361 q 235 361 261 383 q 288 404 288 442 q 288 468 281 497 l 264 569 q 254 611 254 642 q 254 695 298 733 q 342 771 464 771 l 530 771 l 530 675 l 475 675 q 433 675 419 669 q 405 663 398 651 q 392 640 392 626 q 392 615 394 603 l 399 575 l 409 521 q 418 474 418 450 q 418 407 391 370 q 363 333 307 313 z"},"9":{"x_min":0,"x_max":603,"ha":603,"o":"m 87 3 l 87 112 q 157 78 215 78 q 302 78 352 148 q 402 218 402 334 q 370 301 346 286 q 323 271 297 263 q 272 255 246 255 q 170 255 115 317 q 61 378 61 479 q 61 553 89 614 q 117 674 166 708 q 215 741 288 741 q 381 741 437 701 q 493 661 527 578 q 562 495 562 385 q 562 270 523 178 q 484 86 411 34 q 337 -18 236 -18 q 194 -18 126 -4 q 113 -1 87 3 z m 297 645 q 257 645 232 609 q 208 574 208 505 q 208 439 231 405 q 254 371 293 371 q 332 371 362 403 q 392 436 392 500 q 392 568 365 606 q 337 645 297 645 z"}," ":{"x_min":0,"x_max":603,"ha":603,"o":""},"I":{"x_min":0,"x_max":603,"ha":603,"o":"m 60 0 l 60 96 l 229 96 l 229 626 l 60 626 l 60 723 l 542 723 l 542 626 l 374 626 l 374 96 l 542 96 l 542 0 z"},"H":{"x_min":0,"x_max":603,"ha":603,"o":"m 48 0 l 48 723 l 193 723 l 193 425 l 410 425 l 410 723 l 554 723 l 554 0 l 410 0 l 410 328 l 193 328 l 193 0 z"},"4":{"x_min":0,"x_max":603,"ha":603,"o":"m 335 0 l 335 193 l 46 193 l 46 313 l 317 723 l 462 723 l 462 307 l 559 307 l 559 193 l 462 193 l 462 0 z m 158 307 l 335 307 l 335 576 z"},"~":{"x_min":0,"x_max":603,"ha":603,"o":"m 560 343 q 557 277 539 243 q 521 208 493 188 q 464 168 427 168 q 396 168 373 177 q 349 185 298 211 l 243 239 q 212 254 185 254 q 169 254 156 247 q 143 239 136 225 q 128 210 125 175 l 42 175 q 42 264 83 308 q 124 352 170 352 q 224 352 303 311 l 347 288 q 386 267 416 267 q 439 267 458 285 q 476 304 476 343 z"},"D":{"x_min":0,"x_max":603,"ha":603,"o":"m 42 0 l 42 723 l 300 723 q 455 723 518 635 q 582 547 582 379 q 582 264 551 179 q 520 94 457 47 q 394 0 267 0 z m 187 96 l 233 96 q 333 96 378 156 q 423 215 423 360 q 423 439 407 494 q 392 549 350 588 q 309 626 220 626 l 187 626 z"},"^":{"x_min":0,"x_max":603,"ha":603,"o":"m 42 145 l 301 723 l 560 145 l 461 145 l 301 502 l 139 145 z"},"0":{"x_min":0,"x_max":603,"ha":603,"o":"m 301 -18 q 177 -18 107 82 q 36 181 36 361 q 36 542 107 641 q 177 741 301 741 q 425 741 496 641 q 566 542 566 361 q 566 181 496 82 q 425 -18 301 -18 z m 301 78 q 356 78 383 135 q 410 191 410 361 q 410 532 383 588 q 356 645 301 645 q 246 645 219 588 q 193 532 193 361 q 193 191 219 135 q 246 78 301 78 z"},"F":{"x_min":0,"x_max":603,"ha":603,"o":"m 84 0 l 84 723 l 584 723 l 584 626 l 229 626 l 229 397 l 529 397 l 529 307 l 229 307 l 229 0 z"},"`":{"x_min":0,"x_max":603,"ha":603,"o":"m 326 626 l 181 771 l 326 771 l 422 626 z"},"k":{"x_min":0,"x_max":603,"ha":603,"o":"m 83 0 l 83 771 l 228 771 l 228 298 l 250 298 l 417 530 l 536 530 l 382 320 l 593 0 l 417 0 l 250 257 l 228 257 l 228 0 z"},"u":{"x_min":0,"x_max":603,"ha":603,"o":"m 533 530 l 533 0 l 389 0 l 395 103 l 389 103 q 370 53 328 20 q 287 -12 221 -12 q 150 -12 107 32 q 63 76 63 168 l 63 530 l 208 530 l 208 200 q 208 154 224 137 q 240 121 269 121 q 303 121 335 144 q 367 168 389 200 l 389 530 z"},"]":{"x_min":0,"x_max":603,"ha":603,"o":"m 422 771 l 422 -145 l 48 -145 l 48 -48 l 289 -48 l 289 675 l 48 675 l 48 771 z"},"U":{"x_min":0,"x_max":603,"ha":603,"o":"m 54 723 l 199 723 l 199 257 q 199 169 215 139 q 230 108 254 93 q 277 78 312 78 q 363 78 395 113 q 428 147 428 259 l 428 723 l 548 723 l 548 277 q 548 135 519 83 q 490 31 435 7 q 379 -18 308 -18 q 234 -18 177 8 q 121 33 87 88 q 54 144 54 257 z"},"o":{"x_min":0,"x_max":603,"ha":603,"o":"m 301 -12 q 188 -12 106 58 q 24 129 24 265 q 24 400 105 471 q 187 542 301 542 q 415 542 497 471 q 578 400 578 265 q 578 129 496 58 q 415 -12 301 -12 z m 301 84 q 356 84 389 127 q 421 169 421 265 q 421 361 388 403 q 355 446 301 446 q 246 446 213 403 q 181 361 181 265 q 181 169 213 127 q 246 84 301 84 z"},"N":{"x_min":0,"x_max":603,"ha":603,"o":"m 54 0 l 54 723 l 188 723 l 451 256 l 452 256 l 452 723 l 548 723 l 548 0 l 422 0 l 152 482 l 150 482 l 150 0 z"},"+":{"x_min":0,"x_max":603,"ha":603,"o":"m 256 0 l 256 214 l 42 214 l 42 304 l 256 304 l 256 518 l 346 518 l 346 304 l 560 304 l 560 214 l 346 214 l 346 0 z"},"G":{"x_min":0,"x_max":603,"ha":603,"o":"m 567 15 q 530 3 495 -3 q 460 -10 425 -14 q 390 -18 360 -18 q 263 -18 183 28 q 103 74 61 157 q 19 240 19 358 q 19 472 57 556 q 96 641 171 691 q 246 741 384 741 q 479 741 567 716 l 567 602 q 542 615 510 625 q 479 634 447 639 q 415 645 389 645 q 329 645 278 613 q 227 580 200 513 q 173 447 173 362 q 173 237 234 161 q 295 85 400 85 q 415 85 429 87 l 429 343 l 567 343 z"},"q":{"x_min":0,"x_max":603,"ha":603,"o":"m 410 -193 l 410 0 l 416 100 l 410 100 q 380 51 354 30 q 329 9 303 -2 q 276 -12 244 -12 q 154 -12 98 60 q 43 132 43 253 q 43 383 104 463 q 164 542 268 542 q 311 542 346 526 q 381 511 410 479 l 422 479 l 434 530 l 554 530 l 554 -193 z m 410 379 q 391 400 362 415 q 333 430 306 430 q 274 430 250 412 q 225 394 212 352 q 199 310 199 256 q 199 186 224 154 q 250 122 292 122 q 324 122 351 141 q 379 161 410 207 z"},"d":{"x_min":0,"x_max":603,"ha":603,"o":"m 410 0 l 416 100 l 410 100 q 380 51 354 30 q 329 9 303 -2 q 276 -12 244 -12 q 154 -12 98 60 q 43 132 43 253 q 43 383 104 463 q 164 542 268 542 q 311 542 346 526 q 381 511 410 479 l 416 479 l 410 530 l 410 771 l 554 771 l 554 0 z m 410 379 q 391 400 362 415 q 333 430 306 430 q 274 430 250 412 q 225 394 212 352 q 200 310 200 256 q 200 186 225 154 q 250 122 292 122 q 324 122 352 141 q 379 161 410 207 z"},"1":{"x_min":0,"x_max":603,"ha":603,"o":"m 108 0 l 108 96 l 253 96 l 253 626 l 108 626 l 108 711 l 397 741 l 397 96 l 542 96 l 542 0 z"},"5":{"x_min":0,"x_max":603,"ha":603,"o":"m 126 8 l 126 116 q 190 78 243 78 q 294 78 326 113 q 357 148 357 206 q 357 275 311 318 q 264 360 150 360 l 138 360 l 138 723 l 512 723 l 512 603 l 243 603 l 222 454 q 376 439 445 370 q 514 301 514 212 q 514 119 444 50 q 374 -18 264 -18 q 207 -18 126 8 z"}}}
